PathFileType	4	(X/Y/Z)	Patient4_TMGait_0pt2_03_right_19.trc.trc
DataRate	CameraRate	NumFrames	NumMarkers	Units	OrigDataRate	OrigDataStartFrame	OrigNumFrames
47.781569965870	47.781569965870	4	33	mm	47.781569965870	53	       141
Frame#	Time	Sacral			L.Shoulder			Chest			R.Shoulder			Neck			R.ASIS			L.ASIS			R.Thigh.Superior			R.Thigh.Lateral			R.Thigh.Inferior			R.Patella			L.Thigh.Superior			L.Thigh.Lateral			L.Thigh.Inferior			L.Patella			L.Shank.Superior			L.Shank.Lateral			L.Shank.Inferior			R.Shank.Superior			R.Shank.Lateral			R.Shank.Inferior			R.Heel			R.Midfoot.Superior			R.Midfoot.Lateral			R.Toe			L.Heel			L.Midfoot.Lateral			L.Midfoot.Superior			L.Toe			L.Elbow			L.Wrist			R.Elbow			R.Wrist			
		X1	Y1	Z1	X2	Y2	Z2	X3	Y3	Z3	X4	Y4	Z4	X5	Y5	Z5	X6	Y6	Z6	X7	Y7	Z7	X8	Y8	Z8	X9	Y9	Z9	X10	Y10	Z10	X11	Y11	Z11	X12	Y12	Z12	X13	Y13	Z13	X14	Y14	Z14	X15	Y15	Z15	X16	Y16	Z16	X17	Y17	Z17	X18	Y18	Z18	X19	Y19	Z19	X20	Y20	Z20	X21	Y21	Z21	X22	Y22	Z22	X23	Y23	Z23	X24	Y24	Z24	X25	Y25	Z25	X26	Y26	Z26	X27	Y27	Z27	X28	Y28	Z28	X29	Y29	Z29	X30	Y30	Z30	X31	Y31	Z31	X32	Y32	Z32	X33	Y33	Z33	

53	41.938285714286	778.150953564792	991.025497920955	571.933731032114	965.553460814950	1417.389732349197	383.958712402553	1066.687536235099	1344.686546560291	543.672604457202	989.643181066056	1422.012959490040	718.494189409040	957.200865246233	1480.765583837676	541.555152691182	1016.234082676739	929.679935945499	676.126890725552	985.248326187409	951.469166868758	404.809821851183	1068.940787952316	732.205093791399	626.668479894285	1001.839072280359	613.549883424285	684.406387409009	1071.213039476063	571.069015736252	591.670901001162	1077.133721369188	476.334259062937	591.734180565366	1082.017254432210	781.815778198399	432.768595585392	1044.511053033567	642.122076423836	346.159956457920	1157.637987326646	598.969854436317	415.322499811115	1178.726090847356	511.576624784449	402.418585116379	1118.799942501176	440.727855808125	385.525573666674	984.164085536943	387.479764618403	329.278891267364	987.123274567266	252.759321596457	370.713366592976	1033.641719747152	387.999359922305	598.818576260904	957.074287844583	292.158558271691	667.882718973126	971.950394384437	196.852561034217	597.232474193565	813.152633878199	43.709853534764	583.750480964312	987.585514849063	95.753457173146	601.129705577257	903.493421266154	37.038963069250	649.437471870251	1109.783238612537	43.232567873134	617.239596354286	806.901457092075	167.184754650645	400.039128779759	867.023655593761	133.830190165859	316.456417895929	970.800155831550	148.778956360670	338.597479859345	1057.019761094612	46.455704323960	300.963942730095	880.226969622580	1070.051883546837	279.315846707195	880.741510890822	808.737121979974	282.844026708559	1022.584039289805	1084.604488654443	864.137641747867	1241.000561585649	945.581951986404	844.900607249409	
54	41.959214285714	778.410953390699	989.574515545120	575.918052281905	962.349796056421	1416.286758356027	385.510873881196	1066.235242395702	1343.491428013341	543.417737356551	992.267601299048	1420.674515189335	719.587653813031	956.703186155899	1479.518249046451	543.248528183091	1017.813561605811	928.408384295852	676.469196606941	983.082415579469	950.705974749822	405.669268504644	1069.966552477403	730.862607313107	625.807179255259	1003.955966968724	611.862440226334	684.037395233276	1072.038132544153	569.794622706314	590.101722305762	1077.873876483480	474.594660382155	589.834804752442	1081.581120096960	782.750697083670	434.568995331231	1045.776900706421	642.458976597489	348.467278483913	1158.501863042103	600.557077885443	418.511519353331	1181.493948251651	514.443005172081	405.672846333897	1124.965395058401	442.413643919287	387.809330917945	994.174084059745	382.506599923005	330.546302439715	1004.479858570141	248.154492498935	371.481970106797	1033.347333116041	386.419462497592	597.389271990277	956.360423391702	291.311298714636	667.051223177029	969.407227173071	195.955322243397	596.431335494650	809.006234683240	43.756055841203	583.768687951031	983.451989937526	95.647882352570	600.856990157053	899.348509766114	37.052667057344	649.449630875151	1105.645779459975	42.985071300007	617.199328084163	829.963939199351	151.746767605857	399.714166311246	892.290656729039	123.198521841904	316.045359552193	994.464046782988	144.262662461443	338.820893233727	1086.781120886807	48.191845095742	300.604111542422	864.090218511783	1072.223123474957	283.715186111084	849.670353134079	811.130191684940	289.892265828431	1039.566182785674	1084.336387250100	862.434118025150	1266.910245062788	963.274727722355	834.733837955857	
55	41.980142857143	778.797448388596	988.619047722667	579.676683073808	959.154259401389	1415.740609854542	387.045515737692	1065.846509585834	1342.742837170523	542.972412207004	995.073468731466	1419.720835768140	720.482394219964	956.299138619278	1478.686996956681	544.867246193650	1019.432885608460	927.435686920421	676.462953510282	980.991884620365	950.357015116368	406.191057376097	1070.531615633877	729.629253267323	624.786533070812	1005.345779352223	610.493182692727	683.643944022707	1072.044274128064	568.637359876435	588.580283653929	1077.617683979144	473.116054460447	588.051470799719	1080.516559167025	783.348017797001	435.820707210811	1045.667998039654	642.597310980789	350.291028113768	1157.832325219987	601.523677874367	421.051090954036	1182.541503519229	516.981516138846	408.356954900467	1129.840165873096	443.939249054640	389.623108777075	1003.805990852378	376.633430578711	331.162835674486	1022.237546678188	243.107453719286	371.848644292870	1032.278821537786	385.117472667105	596.084153236753	955.052108305857	290.601127122872	666.327389444124	966.532054494054	195.221034357874	595.721048798239	804.834677862699	43.802810985997	583.790256180934	979.286163172484	95.542033332143	600.592311864754	895.195527540215	37.060411514677	649.465076592440	1101.491867938802	42.760192771025	617.155298109355	854.484838488146	135.337695342347	398.845950312932	919.141105034871	111.591632700746	315.384167084758	1019.308144541701	139.214502908702	338.878489087239	1117.927339745440	50.049980440250	300.785978269318	848.876980503063	1075.499207290676	287.600509921038	822.207805906147	815.390212930944	296.826277486534	1056.418187786495	1084.976065444555	859.863163769443	1291.049043494056	983.129476247698	823.099150352375	
56	42.001071428571	779.298457178466	988.230454302950	583.170271817089	956.012325744474	1415.804675587272	388.551820555342	1065.543065653781	1342.498783259116	542.345733333115	998.055685218228	1419.226214936483	721.162948565163	956.006772912656	1478.330772024498	546.396732662762	1021.056020651661	926.811811895424	676.159238615561	979.007820273427	950.470695168192	406.420981138710	1070.595813810045	728.555494830801	623.707226296146	1005.910935724773	609.501000206976	683.299201298359	1071.176599365463	567.638941580356	587.230663917138	1076.302568360884	471.948259376343	586.523016748876	1078.902845187509	783.709144552458	436.499987533763	1044.293764989241	642.619524670519	351.564610984166	1155.837893094919	601.996158653235	422.799012357876	1182.060382190991	519.277025761628	410.340221804988	1133.481650471821	445.416516733795	390.928438923163	1013.018913966151	370.304241070610	331.162619204277	1040.008201127104	238.129676657152	371.922674192523	1030.379275367362	384.141965250757	595.005705501137	953.081026281664	290.059491140787	665.777375854191	963.299048701196	194.681486342126	595.153634513805	800.638286481616	43.853704538385	583.821574866869	975.089042306999	95.440147660076	600.354097726230	891.030779208687	37.061879175567	649.486632197178	1097.318725374256	42.561302866822	617.111415107665	879.894687834608	119.030217873872	397.627588793704	946.909605689419	99.858341868836	314.681831426748	1044.690787895299	134.191712829645	338.941457411179	1149.494733395966	52.236106649982	301.735848253554	834.813545125311	1079.737549337746	291.033750601309	798.472943459735	820.982819882580	303.515389028398	1073.072741833513	1086.587180104262	856.454055369608	1313.113323672635	1005.001485447137	810.181918868509	
